<svg width="197" height="122" viewBox="0 0 197 122" fill="none" xmlns="http://www.w3.org/2000/svg">
<g filter="url(#filter0_di_964_6)">
<path d="M4.71289 3.48047C12.916 3.77344 21.4609 3.91992 30.3477 3.91992C34.5469 3.91992 38.5508 3.82227 42.3594 3.62695C46.168 3.43164 48.1211 3.33398 48.2188 3.33398C50.8555 3.33398 53.2725 3.40723 55.4697 3.55371C57.7158 3.65137 60.2305 3.89551 63.0137 4.28613C65.8457 4.67676 68.3604 5.21387 70.5576 5.89746C72.7549 6.58105 74.9521 7.5332 77.1494 8.75391C79.3955 9.97461 81.251 11.415 82.7158 13.0752C84.2295 14.7354 85.4502 16.7861 86.3779 19.2275C87.3057 21.6689 87.7695 24.4033 87.7695 27.4307C87.7695 36.3662 82.4229 43.0801 71.7295 47.5723V48.1582C79.7373 49.623 86.4268 52.9434 91.7979 58.1191C97.2178 63.2949 99.9277 69.9111 99.9277 77.9678C99.9277 82.2646 99.1465 86.1465 97.584 89.6133C96.0703 93.0312 94.1172 95.8633 91.7246 98.1094C89.332 100.355 86.3291 102.309 82.7158 103.969C79.1025 105.629 75.5869 106.898 72.1689 107.777C68.751 108.656 64.8203 109.364 60.377 109.901C55.9824 110.39 52.2227 110.707 49.0977 110.854C45.9727 110.951 42.4814 111 38.624 111C25.3916 111 14.0391 111.146 4.56641 111.439C4.37109 110.854 4.27344 110.365 4.27344 109.975C4.27344 109.633 4.37109 108.974 4.56641 107.997C6.03125 107.851 7.20312 107.729 8.08203 107.631C8.96094 107.533 10.1572 107.362 11.6709 107.118C13.2334 106.874 14.4785 106.605 15.4062 106.312C16.3828 105.971 17.3838 105.556 18.4092 105.067C19.4346 104.579 20.1914 103.993 20.6797 103.31C21.2168 102.626 21.4854 101.845 21.4854 100.966C22.0713 85.6826 22.3643 70.2773 22.3643 54.75C22.3643 38.9297 22.1201 25.2822 21.6318 13.8076C21.583 12.5381 21.0215 11.4639 19.9473 10.585C18.9219 9.70605 17.3594 9.02246 15.2598 8.53418C13.1602 8.0459 11.4756 7.72852 10.2061 7.58203C8.93652 7.38672 7.10547 7.16699 4.71289 6.92285C4.51758 6.04395 4.41992 5.43359 4.41992 5.0918C4.41992 4.79883 4.51758 4.26172 4.71289 3.48047ZM37.8184 54.75V60.1699L38.624 106.02C41.8955 106.02 44.8008 105.971 47.3398 105.873C49.8789 105.727 52.6621 105.434 55.6895 104.994C58.7168 104.506 61.3535 103.871 63.5996 103.09C65.8457 102.309 68.0918 101.234 70.3379 99.8672C72.584 98.4512 74.415 96.791 75.8311 94.8867C77.2471 92.9824 78.3945 90.6387 79.2734 87.8555C80.1523 85.0234 80.5918 81.8496 80.5918 78.334C80.5918 74.916 80.0303 71.8643 78.9072 69.1787C77.7842 66.4443 76.1973 64.1738 74.1465 62.3672C72.1445 60.5117 69.6787 58.9736 66.749 57.7529C63.8682 56.5322 60.7188 55.6533 57.3008 55.1162C53.9316 54.5791 50.2451 54.3105 46.2412 54.3105C43.458 54.3105 40.6504 54.457 37.8184 54.75ZM38.7705 8.53418L37.8184 50.2822C57.7402 50.2822 67.7012 42.665 67.7012 27.4307C67.7012 20.79 65.626 15.9072 61.4756 12.7822C57.374 9.65723 51.9053 8.09473 45.0693 8.09473C43.5557 8.09473 41.4561 8.24121 38.7705 8.53418ZM183.717 34.3154C181.861 25.3799 178.443 18.4463 173.463 13.5146C168.531 8.58301 162.599 6.11719 155.665 6.11719C148.878 6.11719 143.604 7.72852 139.845 10.9512C136.134 14.1738 134.278 18.4707 134.278 23.8418C134.278 26.8203 134.547 29.2861 135.084 31.2393C135.621 33.1924 136.72 35.0967 138.38 36.9521C140.04 38.7588 142.457 40.3701 145.631 41.7861C148.805 43.1533 152.955 44.4717 158.082 45.7412C160.865 46.4248 163.282 47.0596 165.333 47.6455C167.433 48.2314 169.728 49.0371 172.218 50.0625C174.757 51.0879 176.93 52.1865 178.736 53.3584C180.592 54.5303 182.423 55.9951 184.229 57.7529C186.085 59.4619 187.574 61.3662 188.697 63.4658C189.869 65.5654 190.797 68.0557 191.48 70.9365C192.213 73.7686 192.579 76.8691 192.579 80.2383C192.579 84.7305 191.749 88.8809 190.089 92.6895C188.429 96.4492 186.256 99.623 183.57 102.211C180.885 104.799 177.784 106.996 174.269 108.803C170.753 110.609 167.188 111.928 163.575 112.758C159.962 113.588 156.373 114.003 152.809 114.003C141.969 114.003 130.421 111.195 118.165 105.58C118.409 100.307 118.531 97.0596 118.531 95.8389C118.531 87.8799 117.872 79.9453 116.554 72.0352C117.091 71.6934 117.628 71.5225 118.165 71.5225C118.849 71.5225 119.459 71.6934 119.996 72.0352C121.021 78.334 122.706 83.9004 125.05 88.7344C127.442 93.5684 130.177 97.4014 133.253 100.233C136.329 103.017 139.503 105.116 142.774 106.532C146.095 107.899 149.439 108.583 152.809 108.583C160.475 108.583 166.358 106.605 170.46 102.65C174.61 98.6465 176.686 93.373 176.686 86.8301C176.686 80.2383 175.147 75.2822 172.071 71.9619C169.044 68.5928 163.233 65.8584 154.64 63.7588C143.897 61.0732 135.499 57.1182 129.444 51.8936C123.438 46.6201 120.436 39.6621 120.436 31.0195C120.436 26.4785 121.168 22.4258 122.633 18.8613C124.146 15.248 126.075 12.3672 128.419 10.2188C130.812 8.02148 133.595 6.21484 136.769 4.79883C139.942 3.33398 143.067 2.33301 146.144 1.7959C149.269 1.20996 152.442 0.916992 155.665 0.916992C165.333 0.916992 175.392 3.16309 185.841 7.65527C185.548 10.5361 185.401 13.5391 185.401 16.6641C185.401 23.9883 185.987 29.8721 187.159 34.3154C186.524 34.5596 185.987 34.6816 185.548 34.6816C185.06 34.6816 184.449 34.5596 183.717 34.3154Z" fill="#A52A2A"/>
</g>
<defs>
<filter id="filter0_di_964_6" x="0.273438" y="0.916992" width="196.306" height="121.086" filterUnits="userSpaceOnUse" color-interpolation-filters="sRGB">
<feFlood flood-opacity="0" result="BackgroundImageFix"/>
<feColorMatrix in="SourceAlpha" type="matrix" values="0 0 0 0 0 0 0 0 0 0 0 0 0 0 0 0 0 0 127 0" result="hardAlpha"/>
<feOffset dy="4"/>
<feGaussianBlur stdDeviation="2"/>
<feComposite in2="hardAlpha" operator="out"/>
<feColorMatrix type="matrix" values="0 0 0 0 0 0 0 0 0 0 0 0 0 0 0 0 0 0 0.25 0"/>
<feBlend mode="normal" in2="BackgroundImageFix" result="effect1_dropShadow_964_6"/>
<feBlend mode="normal" in="SourceGraphic" in2="effect1_dropShadow_964_6" result="shape"/>
<feColorMatrix in="SourceAlpha" type="matrix" values="0 0 0 0 0 0 0 0 0 0 0 0 0 0 0 0 0 0 127 0" result="hardAlpha"/>
<feOffset dy="4"/>
<feGaussianBlur stdDeviation="2"/>
<feComposite in2="hardAlpha" operator="arithmetic" k2="-1" k3="1"/>
<feColorMatrix type="matrix" values="0 0 0 0 0 0 0 0 0 0 0 0 0 0 0 0 0 0 0.25 0"/>
<feBlend mode="normal" in2="shape" result="effect2_innerShadow_964_6"/>
</filter>
</defs>
</svg>
